<?xml version="1.0" standalone="no"?>
<!DOCTYPE svg PUBLIC "-//W3C//DTD SVG 20010904//EN"
 "http://www.w3.org/TR/2001/REC-SVG-20010904/DTD/svg10.dtd">
<svg version="1.0" xmlns="http://www.w3.org/2000/svg"
 width="700.000000pt" height="700.000000pt" viewBox="0 0 700.000000 700.000000"
 preserveAspectRatio="xMidYMid meet">
<metadata>
Created by potrace 1.14, written by Peter Selinger 2001-2017
</metadata>
<g transform="translate(0.000000,700.000000) scale(0.100000,-0.100000)"
fill="#000000" stroke="none">
<path d="M3480 6984 c-759 -100 -1390 -618 -1633 -1339 -22 -66 -44 -136 -48
-155 -4 -19 -10 -46 -13 -60 -36 -146 -55 -534 -32 -646 3 -16 8 -49 11 -74
14 -97 64 -302 92 -370 4 -8 7 -17 8 -20 21 -62 90 -206 143 -300 154 -269
380 -508 640 -675 78 -50 92 -63 87 -80 -3 -11 -30 -117 -60 -235 -67 -264
-59 -242 -87 -230 -21 9 -199 73 -563 202 -77 27 -149 53 -160 58 -11 5 -74
27 -140 50 -66 23 -150 58 -186 76 -102 54 -222 171 -286 279 -41 70 -88 196
-99 262 -3 21 -7 40 -9 43 -5 9 -15 122 -20 245 -3 61 -7 153 -10 205 -3 52
-7 149 -10 215 -3 66 -7 170 -10 230 -12 259 -17 364 -20 420 -2 33 -3 77 -4
98 l-1 38 -147 -7 c-82 -4 -159 -7 -172 -7 l-23 -1 7 -165 c3 -92 8 -193 10
-226 2 -33 6 -130 10 -215 3 -85 8 -186 10 -225 2 -38 7 -131 10 -205 12 -302
15 -343 30 -455 6 -46 38 -165 62 -230 119 -325 363 -566 688 -680 137 -49
299 -106 649 -230 l337 -120 -6 -30 c-13 -64 -94 -532 -100 -575 -8 -56 -14
-97 -20 -130 -2 -14 -7 -47 -10 -75 -3 -27 -7 -59 -9 -70 -2 -11 -7 -51 -11
-90 -4 -38 -8 -77 -10 -85 -1 -8 -6 -51 -10 -95 -3 -44 -8 -93 -10 -110 -6
-39 -19 -198 -30 -360 -13 -186 -21 -553 -16 -763 l1 -53 58 5 c45 4 256 17
308 19 7 0 11 78 12 251 0 235 3 325 17 536 6 84 8 116 20 255 12 137 30 313
40 375 2 14 7 52 10 85 3 33 8 67 10 75 2 8 7 38 10 65 3 28 7 59 9 70 2 11 9
56 16 100 7 44 14 89 16 100 2 10 6 35 9 55 5 35 10 61 20 110 2 14 7 39 10
56 8 50 85 425 95 464 5 19 11 46 14 60 3 14 12 54 21 90 9 36 18 72 20 81 2
8 17 69 34 134 17 65 31 119 31 120 0 2 28 -6 63 -17 186 -59 388 -86 612 -83
77 1 158 5 180 8 22 4 60 9 85 12 25 4 76 13 114 22 37 8 73 16 80 17 31 7
105 29 140 42 21 8 42 11 46 7 5 -4 11 -58 15 -120 3 -61 8 -124 10 -140 1
-15 6 -73 10 -128 4 -55 8 -111 10 -125 2 -14 6 -70 10 -125 4 -55 9 -107 10
-115 3 -15 12 -113 20 -200 4 -50 14 -149 20 -195 2 -16 6 -61 10 -100 3 -38
8 -81 10 -95 3 -14 7 -56 11 -95 3 -38 8 -78 9 -87 2 -9 7 -48 10 -85 4 -37 9
-76 10 -85 2 -9 7 -48 10 -85 4 -37 9 -77 11 -88 2 -11 6 -45 10 -75 3 -30 7
-66 9 -80 2 -14 7 -45 10 -70 4 -25 8 -54 9 -65 2 -11 7 -49 11 -85 5 -36 9
-67 10 -70 1 -3 5 -34 9 -70 5 -36 10 -74 12 -85 2 -11 7 -40 10 -65 3 -25 8
-54 10 -65 2 -11 7 -40 10 -65 3 -25 8 -52 9 -62 2 -9 6 -38 10 -65 4 -26 9
-59 11 -73 2 -14 7 -41 10 -60 3 -19 12 -73 20 -119 8 -46 14 -85 14 -88 0 -2
12 -1 28 2 38 7 153 27 177 30 55 8 151 28 157 34 3 3 -2 56 -12 116 -10 61
-21 128 -24 150 -4 22 -11 69 -17 105 -16 107 -17 112 -29 195 -6 44 -13 91
-15 105 -9 59 -17 117 -21 145 -2 17 -6 46 -8 65 -3 19 -8 55 -11 80 -4 25 -8
56 -10 70 -2 14 -7 50 -10 80 -3 30 -8 66 -10 80 -2 14 -7 50 -10 80 -3 30 -8
66 -10 80 -2 14 -7 48 -10 75 -3 28 -8 68 -10 90 -9 75 -16 140 -21 190 -2 28
-6 61 -9 75 -4 24 -15 121 -20 185 -5 62 -18 191 -20 205 -5 30 7 30 53 4 148
-84 301 -233 418 -404 101 -148 175 -285 277 -511 110 -245 255 -733 322
-1087 18 -91 19 -93 44 -88 45 9 244 38 268 40 13 0 23 7 23 16 0 28 -41 225
-80 388 -163 670 -396 1200 -686 1559 -178 219 -385 373 -599 444 -38 13 -71
24 -72 24 -3 1 -12 87 -18 185 -4 52 -8 115 -10 140 -7 85 -15 195 -20 282
l-4 87 98 70 c460 328 754 822 825 1381 17 138 13 417 -8 542 -120 717 -571
1280 -1238 1549 -112 45 -317 100 -443 119 -120 18 -412 20 -535 4z m510 -539
c450 -87 824 -362 1029 -756 64 -124 122 -284 137 -376 3 -21 8 -41 10 -45 16
-26 24 -325 11 -430 -40 -332 -189 -632 -430 -868 -188 -185 -441 -323 -696
-381 -135 -31 -348 -42 -491 -25 -312 36 -624 185 -849 408 -53 51 -110 119
-189 223 -4 6 -29 46 -54 90 -74 127 -144 317 -173 470 -25 134 -25 378 0 505
10 51 15 76 20 104 3 16 8 33 11 38 3 4 7 16 9 25 7 39 59 172 92 236 139 278
371 509 648 647 170 84 313 128 471 145 32 4 61 8 63 11 10 10 306 -6 381 -21z"/>
</g>
</svg>
